<?xml version="1.0" encoding="utf-8"?>
<!-- Generator: Adobe Illustrator 19.1.0, SVG Export Plug-In . SVG Version: 6.00 Build 0)  -->
<svg version="1.1" id="Layer_1" xmlns="http://www.w3.org/2000/svg" xmlns:xlink="http://www.w3.org/1999/xlink" x="0px" y="0px"
	 viewBox="-56.6 180 102 102" style="enable-background:new -56.6 180 102 102;" xml:space="preserve">
<style type="text/css">
	.st0{fill:#FFFFFF;}
	.st1{enable-background:new    ;}
</style>
<g>
	<path class="st0" d="M0.5,61.6c-27.6,0-50,22.4-50,50s22.4,50,50,50s50-22.4,50-50S28.1,61.6,0.5,61.6z M0.5,157.9
		c-25.5,0-46.3-20.8-46.3-46.3S-25,65.3,0.5,65.3s46.3,20.8,46.3,46.3S26,157.9,0.5,157.9z"/>
	<path class="st0" d="M24,85.5c-0.9-0.9-2.1-1.4-3.5-1.4c-1.3,0-2.5,0.5-3.5,1.4l-3.6,3.6l0,0l-33.3,33.4l-0.3,0.3l-4.7,15.7
		l15.7-4.7l33.6-33.6l3.6-3.6c1.9-1.9,1.9-5,0-6.9L24,85.5z M-17.3,126.1l4.8,4.8l-6.8,2.1L-17.3,126.1z M-9.5,128.7l-5.7-5.7
		l28.6-28.6l5.7,5.7L-9.5,128.7z M25.4,93.8l-3.6,3.6l-5.7-5.7l3.6-3.6c0.4-0.4,1.2-0.4,1.7,0l4,4C25.8,92.6,25.8,93.4,25.4,93.8z"
		/>
</g>
<text transform="matrix(1 0 0 1 -199 303)" style="font-family:'HelveticaNeue-Bold'; font-size:5px;">Created by Jonathan Gibson</text>
<text transform="matrix(1 0 0 1 -199 308)" style="font-family:'HelveticaNeue-Bold'; font-size:5px;">from the Noun Project</text>
<path d="M-5.6,180c-28.2,0-51,22.8-51,51c0,28.2,22.8,51,51,51s51-22.8,51-51C45.4,202.8,22.5,180-5.6,180z M-5.6,184.1
	c25.9,0,46.9,21,46.9,46.9c0,25.9-21,46.9-46.9,46.9s-46.9-21-46.9-46.9C-52.6,205.1-31.6,184.1-5.6,184.1z M-21.1,211.2
	c-0.4-0.1-0.8,0.1-1,0.5l-8.5,14.7c-0.3,0.5-0.1,1.2,0.4,1.5l6.4,3.7l4.8-8.3l4.8-8.3l-6.4-3.7C-20.8,211.3-21,211.3-21.1,211.2
	L-21.1,211.2z M-10.8,214.7c-0.4-0.1-0.8,0.1-1,0.5l-5.3,9.2l-5.3,9.2c-0.3,0.5-0.1,1.1,0.4,1.4l29.4,17c0.5,0.3,1.1,0.1,1.5-0.4
	l10.6-18.4c0.3-0.5,0.1-1.1-0.4-1.5l-29.4-17C-10.6,214.8-10.7,214.7-10.8,214.7z"/>
</svg>
