<?xml version="1.0" encoding="utf-8"?>
<!-- Generator: Adobe Illustrator 19.1.0, SVG Export Plug-In . SVG Version: 6.00 Build 0)  -->
<svg version="1.1" id="Layer_1" xmlns="http://www.w3.org/2000/svg" xmlns:xlink="http://www.w3.org/1999/xlink" x="0px" y="0px"
	 viewBox="-358.2 168.6 107.2 107.2" style="enable-background:new -358.2 168.6 107.2 107.2;" xml:space="preserve">
<style type="text/css">
	.st0{fill:#808080;}
	.st1{fill:#FFFFFF;}
	.st2{enable-background:new    ;}
</style>
<g>
	<path class="st0" d="M-49.1,261.6c-27.6,0-50,22.4-50,50c0,27.6,22.4,50,50,50s50-22.4,50-50S-21.5,261.6-49.1,261.6z M-49.1,357.9
		c-25.5,0-46.3-20.8-46.3-46.3s20.8-46.3,46.3-46.3s46.3,20.8,46.3,46.3S-23.6,357.9-49.1,357.9z"/>
	<g>
		<path class="st0" d="M-59.7,336.3c-0.6,0-1.1-0.5-1.1-1.1v-32.8c0-0.6,0.5-1.1,1.1-1.1s1.1,0.5,1.1,1.1v32.8
			C-58.5,335.8-59,336.3-59.7,336.3z"/>
		<path class="st0" d="M-49,336.3c-0.6,0-1.1-0.5-1.1-1.1v-32.8c0-0.6,0.5-1.1,1.1-1.1s1.1,0.5,1.1,1.1v32.8
			C-47.9,335.8-48.4,336.3-49,336.3z"/>
		<path class="st0" d="M-38.8,336.3c-0.6,0-1.1-0.5-1.1-1.1v-32.8c0-0.6,0.5-1.1,1.1-1.1s1.1,0.5,1.1,1.1v32.8
			C-37.7,335.8-38.2,336.3-38.8,336.3z"/>
		<path class="st0" d="M-24.7,286H-40v-5.1c0-0.9-0.7-1.6-1.6-1.6h-13.3c-0.9,0-1.6,0.7-1.6,1.6v5.1h-17.1c-0.9,0-1.6,0.7-1.6,1.6
			v6.4c0,0.9,0.7,1.6,1.6,1.6h2.7l1.3,45.7c0,1,0.8,2.4,2.4,2.4h34.8c1.6,0,2.4-1.6,2.4-2.4l1.7-45.8h3.3c0.9,0,1.6-0.7,1.6-1.6
			v-6.5C-23.2,286.7-23.9,286-24.7,286z M-54.2,281.5h12v4.5h-12V281.5L-54.2,281.5z M-32,341.2c0,0.1-0.1,0.3-0.2,0.3H-67
			c-0.1,0-0.2,0-0.2-0.3l-1.3-45.7h38.3L-32,341.2z M-25.4,293.4h-4.2h-39.7h-3.6v-5.2h47.5V293.4L-25.4,293.4z"/>
	</g>
</g>
<g>
	<path class="st1" d="M-170.6,261.6c-27.6,0-50,22.4-50,50c0,27.6,22.4,50,50,50s50-22.4,50-50S-143,261.6-170.6,261.6z
		 M-170.6,357.9c-25.5,0-46.3-20.8-46.3-46.3s20.8-46.3,46.3-46.3s46.3,20.8,46.3,46.3S-145.1,357.9-170.6,357.9z"/>
	<path class="st1" d="M-147.1,285.5c-0.9-0.9-2.1-1.4-3.5-1.4c-1.3,0-2.5,0.5-3.5,1.4l-3.6,3.6l0,0l-33.3,33.4l-0.3,0.3l-4.7,15.7
		l15.7-4.7l33.6-33.6l3.6-3.6c1.9-1.9,1.9-5,0-6.9L-147.1,285.5z M-188.4,326.1l4.8,4.8l-6.8,2.1L-188.4,326.1z M-180.6,328.7
		l-5.7-5.7l28.6-28.6l5.7,5.7L-180.6,328.7z M-145.7,293.8l-3.6,3.6l-5.7-5.7l3.6-3.6c0.4-0.4,1.2-0.4,1.7,0l4,4
		C-145.3,292.6-145.3,293.4-145.7,293.8z"/>
</g>
<g>
	<path class="st1" d="M-304.6,172.2c-27.6,0-50,22.4-50,50s22.4,50,50,50s50-22.4,50-50S-277,172.2-304.6,172.2z M-304.6,268.5
		c-25.5,0-46.3-20.8-46.3-46.3s20.8-46.3,46.3-46.3s46.3,20.8,46.3,46.3S-279.1,268.5-304.6,268.5z"/>
</g>
<text transform="matrix(1 0 0 1 -397 503)" style="font-family:'HelveticaNeue-Bold'; font-size:5px;">Created by Jonathan Gibson</text>
<text transform="matrix(1 0 0 1 -397 508)" style="font-family:'HelveticaNeue-Bold'; font-size:5px;">from the Noun Project</text>
<path class="st1" d="M-152.6,493.3c-28.2,0-51,22.8-51,51s22.8,51,51,51s51-22.8,51-51S-124.5,493.3-152.6,493.3z M-152.6,497.3
	c25.9,0,46.9,21,46.9,46.9c0,25.9-21,46.9-46.9,46.9s-46.9-21-46.9-46.9C-199.6,518.3-178.6,497.3-152.6,497.3z M-168.1,524.5
	c-0.4-0.1-0.8,0.1-1,0.5l-8.5,14.7c-0.3,0.5-0.1,1.2,0.4,1.5l6.4,3.7l4.8-8.3l4.8-8.3l-6.4-3.7C-167.8,524.6-168,524.5-168.1,524.5
	L-168.1,524.5z M-157.8,528c-0.4-0.1-0.8,0.1-1,0.5l-5.3,9.2l-5.3,9.2c-0.3,0.5-0.1,1.1,0.4,1.4l29.4,17c0.5,0.3,1.1,0.1,1.5-0.4
	l10.6-18.4c0.3-0.5,0.1-1.1-0.4-1.5l-29.4-17C-157.6,528.1-157.7,528-157.8,528z"/>
<g>
	<g>
		<path class="st1" d="M-334.2,238.1h34.3c0.9,0,1.6-0.7,1.6-1.6c0-0.9-0.7-1.6-1.6-1.6h-34.3c-0.9,0-1.6,0.7-1.6,1.6
			C-335.8,237.4-335.1,238.1-334.2,238.1z"/>
		<path class="st1" d="M-334.2,200.9h59c0.9,0,1.6-0.7,1.6-1.6c0-0.9-0.7-1.6-1.6-1.6h-59c-0.9,0-1.6,0.7-1.6,1.6
			C-335.8,200.2-335.1,200.9-334.2,200.9z"/>
		<path class="st1" d="M-334.2,219.4h59c0.9,0,1.6-0.7,1.6-1.6c0-0.9-0.7-1.6-1.6-1.6h-59c-0.9,0-1.6,0.7-1.6,1.6
			C-335.8,218.7-335.1,219.4-334.2,219.4z"/>
		<path class="st1" d="M-282.1,238.1h7.1c0.9,0,1.6-0.7,1.6-1.6c0-0.9-0.7-1.6-1.6-1.6h-7.1v-7.1c0-0.9-0.7-1.6-1.6-1.6
			c-0.9,0-1.6,0.7-1.6,1.6v7.2h-7.1c-0.9,0-1.6,0.7-1.6,1.6s0.7,1.6,1.6,1.6h7.1v7.1c0,0.9,0.7,1.6,1.6,1.6c0.9,0,1.6-0.7,1.6-1.6
			V238.1z"/>
	</g>
</g>
<path class="st1" d="M-147.1,164.9c-0.9-0.9-2.1-1.4-3.5-1.4c-1.3,0-2.5,0.5-3.5,1.4l-3.6,3.6l0,0l-33.3,33.4l-0.3,0.3l-4.7,15.7
	l15.7-4.7l33.6-33.6l3.6-3.6c1.9-1.9,1.9-5,0-6.9L-147.1,164.9z M-188.4,205.5l4.8,4.8l-6.8,2.1L-188.4,205.5z M-180.6,208.1
	l-5.7-5.7l28.6-28.6l5.7,5.7L-180.6,208.1z M-145.7,173.2l-3.6,3.6l-5.7-5.7l3.6-3.6c0.4-0.4,1.2-0.4,1.7,0l4,4
	C-145.3,172-145.3,172.8-145.7,173.2z"/>
<g>
	<path d="M-320.5,474c-0.3,0.3-0.5,0.7-0.4,1.1l4.4,16.4c0.2,0.6,0.7,0.9,1.3,0.8l7.2-1.9l-2.5-9.2l-2.5-9.2l-7.2,1.9
		C-320.3,473.9-320.4,474-320.5,474L-320.5,474z"/>
	<path d="M-310.8,469.2c-0.3,0.3-0.5,0.7-0.4,1.1l2.7,10.3l2.7,10.3c0.2,0.6,0.7,0.9,1.3,0.7l32.8-8.8c0.6-0.2,0.9-0.7,0.8-1.3
		l-5.5-20.5c-0.2-0.6-0.7-0.9-1.3-0.8l-32.8,8.8C-310.6,469.1-310.7,469.1-310.8,469.2z"/>
</g>
</svg>
