<?xml version="1.0" encoding="utf-8"?>
<!-- Generator: Adobe Illustrator 19.1.0, SVG Export Plug-In . SVG Version: 6.00 Build 0)  -->
<svg version="1.1" id="Layer_1" xmlns="http://www.w3.org/2000/svg" xmlns:xlink="http://www.w3.org/1999/xlink" x="0px" y="0px"
	 viewBox="-156.6 -27.8 100 100" style="enable-background:new -156.6 -27.8 100 100;" xml:space="preserve">
<style type="text/css">
	.st0{fill:#808080;}
	.st1{fill:#FFFFFF;}
	.st2{enable-background:new    ;}
</style>
<g>
	<path class="st0" d="M148.9,61.6c-27.6,0-50,22.4-50,50s22.4,50,50,50s50-22.4,50-50S176.5,61.6,148.9,61.6z M148.9,157.9
		c-25.5,0-46.3-20.8-46.3-46.3s20.8-46.3,46.3-46.3s46.3,20.8,46.3,46.3S174.4,157.9,148.9,157.9z"/>
	<g>
		<path class="st0" d="M138.3,136.3c-0.6,0-1.1-0.5-1.1-1.1v-32.8c0-0.6,0.5-1.1,1.1-1.1c0.6,0,1.1,0.5,1.1,1.1v32.8
			C139.5,135.8,139,136.3,138.3,136.3z"/>
		<path class="st0" d="M149,136.3c-0.6,0-1.1-0.5-1.1-1.1v-32.8c0-0.6,0.5-1.1,1.1-1.1c0.6,0,1.1,0.5,1.1,1.1v32.8
			C150.1,135.8,149.6,136.3,149,136.3z"/>
		<path class="st0" d="M159.2,136.3c-0.6,0-1.1-0.5-1.1-1.1v-32.8c0-0.6,0.5-1.1,1.1-1.1c0.6,0,1.1,0.5,1.1,1.1v32.8
			C160.3,135.8,159.8,136.3,159.2,136.3z"/>
		<path class="st0" d="M173.3,86H158v-5.1c0-0.9-0.7-1.6-1.6-1.6h-13.3c-0.9,0-1.6,0.7-1.6,1.6V86h-17.1c-0.9,0-1.6,0.7-1.6,1.6V94
			c0,0.9,0.7,1.6,1.6,1.6h2.7l1.3,45.7c0,1,0.8,2.4,2.4,2.4h34.8c1.6,0,2.4-1.6,2.4-2.4l1.7-45.8h3.3c0.9,0,1.6-0.7,1.6-1.6v-6.5
			C174.8,86.7,174.1,86,173.3,86z M143.8,81.5h12V86h-12V81.5L143.8,81.5z M166,141.2c0,0.1-0.1,0.3-0.2,0.3h-34.8
			c-0.1,0-0.2,0-0.2-0.3l-1.3-45.7h38.3L166,141.2z M172.6,93.4h-4.2h-39.7h-3.6v-5.2h47.5V93.4L172.6,93.4z"/>
	</g>
</g>
<g>
	<path class="st1" d="M27.4,61.6c-27.6,0-50,22.4-50,50s22.4,50,50,50s50-22.4,50-50S55,61.6,27.4,61.6z M27.4,157.9
		c-25.5,0-46.3-20.8-46.3-46.3S1.9,65.3,27.4,65.3s46.3,20.8,46.3,46.3S52.9,157.9,27.4,157.9z"/>
	<path class="st1" d="M50.9,85.5c-0.9-0.9-2.1-1.4-3.5-1.4c-1.3,0-2.5,0.5-3.5,1.4l-3.6,3.6l0,0L7,122.5l-0.3,0.3L2,138.5l15.7-4.7
		l33.6-33.6l3.6-3.6c1.9-1.9,1.9-5,0-6.9L50.9,85.5z M9.6,126.1l4.8,4.8L7.6,133L9.6,126.1z M17.4,128.7l-5.7-5.7l28.6-28.6l5.7,5.7
		L17.4,128.7z M52.3,93.8l-3.6,3.6L43,91.7l3.6-3.6c0.4-0.4,1.2-0.4,1.7,0l4,4C52.7,92.6,52.7,93.4,52.3,93.8z"/>
</g>
<g>
	<path class="st0" d="M-106.6-27.8c-27.6,0-50,22.4-50,50s22.4,50,50,50s50-22.4,50-50S-79-27.8-106.6-27.8z M-106.6,68.5
		c-25.5,0-46.3-20.8-46.3-46.3s20.8-46.3,46.3-46.3s46.3,20.8,46.3,46.3S-81.1,68.5-106.6,68.5z"/>
</g>
<text transform="matrix(1 0 0 1 -199 303)" style="font-family:'HelveticaNeue-Bold'; font-size:5px;">Created by Jonathan Gibson</text>
<text transform="matrix(1 0 0 1 -199 308)" style="font-family:'HelveticaNeue-Bold'; font-size:5px;">from the Noun Project</text>
<path class="st1" d="M-5.6,180c-28.2,0-51,22.8-51,51c0,28.2,22.8,51,51,51s51-22.8,51-51C45.4,202.8,22.5,180-5.6,180z M-5.6,184.1
	c25.9,0,46.9,21,46.9,46.9c0,25.9-21,46.9-46.9,46.9s-46.9-21-46.9-46.9C-52.6,205.1-31.6,184.1-5.6,184.1z M-21.1,211.2
	c-0.4-0.1-0.8,0.1-1,0.5l-8.5,14.7c-0.3,0.5-0.1,1.2,0.4,1.5l6.4,3.7l4.8-8.3l4.8-8.3l-6.4-3.7C-20.8,211.3-21,211.3-21.1,211.2
	L-21.1,211.2z M-10.8,214.7c-0.4-0.1-0.8,0.1-1,0.5l-5.3,9.2l-5.3,9.2c-0.3,0.5-0.1,1.1,0.4,1.4l29.4,17c0.5,0.3,1.1,0.1,1.5-0.4
	l10.6-18.4c0.3-0.5,0.1-1.1-0.4-1.5l-29.4-17C-10.6,214.8-10.7,214.7-10.8,214.7z"/>
<g>
	<g>
		<path class="st0" d="M-136.2,38.1h34.3c0.9,0,1.6-0.7,1.6-1.6c0-0.9-0.7-1.6-1.6-1.6h-34.3c-0.9,0-1.6,0.7-1.6,1.6
			C-137.8,37.4-137.1,38.1-136.2,38.1z"/>
		<path class="st0" d="M-136.2,0.9h59c0.9,0,1.6-0.7,1.6-1.6s-0.7-1.6-1.6-1.6h-59c-0.9,0-1.6,0.7-1.6,1.6S-137.1,0.9-136.2,0.9z"/>
		<path class="st0" d="M-136.2,19.4h59c0.9,0,1.6-0.7,1.6-1.6s-0.7-1.6-1.6-1.6h-59c-0.9,0-1.6,0.7-1.6,1.6S-137.1,19.4-136.2,19.4z
			"/>
		<path class="st0" d="M-84.1,38.1h7.1c0.9,0,1.6-0.7,1.6-1.6c0-0.9-0.7-1.6-1.6-1.6h-7.1v-7.1c0-0.9-0.7-1.6-1.6-1.6
			c-0.9,0-1.6,0.7-1.6,1.6V35h-7.1c-0.9,0-1.6,0.7-1.6,1.6s0.7,1.6,1.6,1.6h7.1v7.1c0,0.9,0.7,1.6,1.6,1.6c0.9,0,1.6-0.7,1.6-1.6
			V38.1z"/>
	</g>
</g>
</svg>
